<svg xmlns="http://www.w3.org/2000/svg" width="100%" height="100%" viewBox="0 0 269 114" fill-rule="nonzero" stroke-linejoin="round" stroke-miterlimit="2" xmlns:v="https://vecta.io/nano"><g fill="#ffffff"><path d="M30.19 79.876c-13.825 7.08-6.092-12.858-2.504-17.496 7.458-9.654 17.942-16.396 29.546-19.85 22.988-6.833 51.058 4.388 73.183 10.442 21.73 5.95 43.07 13.654 65.72 15.23 11.663.813 23.867-1.18 35.15-3.954C242.247 61.55 253.68 57 261.372 48.43c6.08-6.77 8.608-20.525 1.446-27.6-3.575-3.525-9.346-6.988-14.488-4.092-3.392 1.917-8.83 5.338-7.617 10.167 2.096 8.308 12.817 10.417 17.83 3.65 1.6-2.163-2.02-4.233-3.6-2.096-2.267 2.508-4.792 2.863-7.575 1.063-3.775-9.63.808-10.913 13.746-3.846 2.158 3.196 1.97 8.28 1.304 11.908-1.067 5.796-5.675 10.208-10.254 13.475-9.27 6.62-21.28 9.4-32.313 11.338-33.77 5.925-66.796-7.238-98.846-16.3-30.917-8.754-63.53-16.792-89.913 6.53-7.517 6.65-14.067 15.496-13.22 25.97.692 8.563 8.608 7.85 14.417 4.875 2.392-1.225.283-4.82-2.1-3.596z"/><path d="M66.2 22.263c2.7 5.3 4.03 12.13 8.03 16.65 1.783 2.017 4.72-.942 2.946-2.946-1.783-2.02-2.73-5.083-3.742-7.525-1.158-2.783-2.267-5.6-3.638-8.28-1.22-2.4-4.813-.288-3.596 2.1zm43.556 46.663c4.846-6.392 11.342-11.313 16.175-17.725 1.62-2.146-2-4.22-3.596-2.1-4.825 6.4-11.33 11.32-16.18 17.725-1.62 2.142 2 4.217 3.6 2.1zM145.343 38c2.717 6.513 4.863 13.242 7.575 19.75 1.02 2.442 5.054 1.37 4.02-1.104-2.713-6.513-4.858-13.242-7.575-19.754-1.025-2.433-5.054-1.37-4.02 1.108zM40.055 43.726C26.76 39.013 16.73 30.855 18.385 15.6L16.3 17.684c13.167.083 28.87 12.508 23.613 26.742l3.808-.496c-3.208-7.342-9.5-12-15.13-17.404-1.938-1.854-4.888 1.083-2.946 2.946 5.355 5.154 11.42 9.554 14.48 16.558.796 1.825 3.258.983 3.808-.496C50.15 28.7 32.022 13.618 16.3 13.518c-1.23-.008-1.963.963-2.083 2.083-1.858 17.154 9.77 26.842 24.733 32.146 2.538.9 3.62-3.13 1.104-4.02z"/><path d="M127.73 47.163c-3.025-6.038-9.917-9.346-13.904-14.825-5.063-6.95-3.558-15.258-.496-22.63l-3.483.92c11.363 8.942 22.138 19.358 14.08 34.55l3.808.496c-2.4-7.03-5.438-13.796-8.18-20.683-.98-2.47-5.013-1.396-4.02 1.104 2.746 6.892 5.783 13.658 8.18 20.688.55 1.608 2.913 2.188 3.808.496 8.958-16.875-1.47-29.163-14.73-39.596-1.313-1.038-2.842-.617-3.483.917-3.013 7.254-4.12 14.346-1.246 21.804 3.196 8.283 12.32 11.388 16.07 18.858 1.204 2.404 4.796.296 3.596-2.1zm25.47 11.22c-16.746-5.17-25.263 24.867-21.046 36.563.404 1.125 1.383 1.7 2.563 1.458 16.538-3.438 27.33-19.888 22.467-36.33-.463-1.57-2.308-1.95-3.48-.92-4.863 4.267-6.13 12.438-11.4 15.938-2.225 1.483-.142 5.092 2.1 3.6 5.863-3.9 7.017-12.004 12.246-16.592l-3.483-.917c4.254 14.383-5.2 28.217-19.558 31.2l2.563 1.454c-3.125-8.67 2.892-35.458 15.925-31.433 2.575.792 3.667-3.233 1.104-4.02zm50.206 3.804c-15.946-1.075-22.288-21.08-21.292-34.546l-3.558 1.47c4.542 5.042 11.008 7.23 16.242 11.388 7.783 6.196 6.446 15.55 8.58 24.117l3.483-2.03c-5.033-4.792-9.05-10.425-13.654-15.604-1.792-2.008-4.725.946-2.946 2.946 4.604 5.18 8.62 10.813 13.654 15.608 1.525 1.446 3.992.008 3.483-2.03-2.054-8.233-.854-16.275-6.904-23.12-5.404-6.108-13.596-8.23-18.992-14.22-1.308-1.45-3.43-.204-3.554 1.475-1.188 16.03 7.138 37.475 25.458 38.713 2.683.183 2.667-3.988 0-4.167zM78.1 39.113c-15.754.158-26.513 18.358-20.913 32.67.43 1.092 1.37 1.73 2.567 1.454 15.763-3.608 28.22-16.242 19.7-32.546-.733-1.404-2.833-1.308-3.596 0-3.675 6.3-7.57 12.37-12.83 17.488-1.93 1.875 1.02 4.817 2.946 2.946 5.508-5.354 9.63-11.73 13.48-18.333H75.86c7.292 13.954-4.392 23.492-17.213 26.425l2.563 1.458c-4.584-11.712 3.633-27.262 16.9-27.395 2.688-.03 2.688-4.196 0-4.167z"/><path d="M203.15 64.938c-4.775 6.68-8.492 14.25-11.746 21.775-1.054 2.438 2.538 4.558 3.6 2.096 3.25-7.517 6.967-15.088 11.742-21.77 1.567-2.192-2.05-4.27-3.596-2.1zm38.568-8.428c-14.57 11.83-8.313 31.346 4.913 41.375.72.546 1.938.296 2.525-.325 11.058-11.704 10.996-31.813-4.708-39.396-1.267-.613-3.313.088-3.133 1.8l2.333 22.296c.28 2.646 4.45 2.675 4.167 0l-2.333-22.296-3.133 1.796c13.27 6.408 13.192 22.98 3.863 32.854l2.52-.325c-11.27-8.554-16.417-24.8-4.067-34.833 2.088-1.7-.88-4.625-2.946-2.946zM74.414 11.18c1.25-7.996-10.983-11.967-15.48-5.758-2.763 3.82 1.013 9.496 4.317 11.475 4.975 2.983 10.02-.65 11.163-5.717.592-2.617-3.425-3.73-4.02-1.108-1.842 8.17-10.142.117-7.833-2.567 1.77-2.067 8.342-.67 7.833 2.567-.408 2.63 3.608 3.754 4.02 1.108zm33.492 74.117c2.4-3.904 1.713-8.417-1.954-11.225-3.013-2.3-7.658-3.07-10.883-.75-4.25 3.063-3.792 9.292-.813 13.03 3.775 4.725 10.475 3.454 13.65-1.054 1.554-2.204-2.063-4.28-3.596-2.1-4.475 6.342-11.97-3.817-6.254-6.825 1.725-.908 4.067.08 5.492 1.075 2.07 1.442 1.958 3.804.763 5.75-1.413 2.296 2.192 4.388 3.596 2.1zm30.312-52.58c7.013 6.717 18.4-3.158 14.608-11.342-2.246-4.846-9.05-4.083-12.613-1.513-4.642 3.342-6.342 9.896-1.404 13.792 2.083 1.65 5.054-1.28 2.946-2.946-6.383-5.042 5.708-12.033 7.525-7.092 1.475 4.02-4.68 9.446-8.117 6.154-1.942-1.863-4.892 1.083-2.946 2.946zm49.9 75.112c4.375-.667 7.896-3.817 7.513-8.488-.313-3.846-3.096-7.538-6.933-8.408-4.746-1.075-9.358 2.88-9.73 7.55-.4 5.017 3.288 9.892 8.596 9.417 2.654-.233 2.68-4.404 0-4.167-6.92.62-4.77-10.967.804-8.575 1.754.754 2.97 2.65 3.125 4.52.225 2.746-2.138 3.77-4.48 4.13-2.65.408-1.525 4.42 1.104 4.02zM11.2 78.172c-3.63-1.52-6.73 3.77-4.283 6.625C9.96 88.35 16.3 80.3 11.2 78.172zm7.53 11.254c.354 3.633-4.65 5.538-6.875 2.746-3.467-4.33 6.304-8.583 6.875-2.746zm-11.03.496c-2.92-5.013-9.383 1.492-5.183 4.192 2.63 1.683 6.942-1.154 5.183-4.192z"/></g></svg>
