<svg xmlns="http://www.w3.org/2000/svg" width="100%" height="100%" viewBox="0 0 433 146" fill-rule="evenodd" stroke-linejoin="round" stroke-miterlimit="2" xmlns:v="https://vecta.io/nano"><g transform="matrix(0 4.16667 -4.16667 0 1738.906329 -1118.837414)" fill="#ffffff" fill-rule="nonzero"><path d="M270.517 315.563c-.398.444-1.086.555-1.443-.416-.32-.875.72-1.644 1.444-.994.46.414.333 1.034-.001 1.4zm3.226.667c.275-.76-.563-1.474-1.287-1.068-1.305.73.866 2.236 1.287 1.068zm-2.943 2.255c-1.174.196-1.285-1.056-.548-1.716 1.122-1.008 1.74 1.5.548 1.716zm13.56 79.112c6.238-3.02 12.635.924 17.397 4.888l.1-.785c-6.518 3.16-12.594-.416-17.396-4.888l-.486.835c3.802 1.603 7.847 2.53 11.652 4.12.595.248.852-.72.266-.965-3.805-1.588-7.85-2.516-11.653-4.12-.472-.2-.832.513-.486.836 5.18 4.825 11.655 8.416 18.607 5.044.276-.132.34-.586.102-.785-5.157-4.293-11.916-8.285-18.608-5.045-.58.282-.073 1.143.504.864z"/><path d="M280.356 391.9c1.576 3.736.414 8.235-1.5 11.602-1.526 2.687-4.337 4.08-6.838 5.688l.752.432c-.742-7.578 1.883-13.286 8.32-17.423l-.735-.564c-.917 4.064-3.588 7.207-5.5 10.803-.304.568.56 1.073.863.503 1.966-3.673 4.677-6.9 5.613-11.04.1-.406-.345-.814-.734-.564-6.716 4.315-9.593 10.35-8.816 18.286.034.353.406.654.75.432 2.93-1.885 5.718-3.442 7.5-6.56 1.92-3.38 2.87-8.16 1.3-11.858-.247-.585-1.215-.328-.965.265zm4.097-15.997c.42 4.992 2.906 9.486 8.34 9.83.232.015.4-.166.482-.367 1.728-4.796-4.237-8.883-8.2-9.946-.4-.108-.82.36-.565.734 1.455 2.14 3.3 4.124 5.162 5.927.462.45 1.17-.257.707-.707-1.786-1.74-3.603-3.66-5.005-5.724l-.565.735c3.266.878 7.87 3.795 7.777 7.6-.052 2.122-4.326-1.013-4.966-1.75-1.484-1.707-1.993-4.16-2.178-6.343-.054-.637-1.055-.642-1 0zm5.207-16.456c-4.338-1.245-7.216 3.886-7.504 7.533-.026.33.338.562.633.483 3.724-1 6.477-3.56 7.492-7.3.14-.518-.466-.787-.836-.486-1.593 1.297-2.837 2.95-4.43 4.25-.5.407.212 1.1.707.707 1.592-1.298 2.836-2.952 4.43-4.25l-.836-.486c-.925 3.42-3.4 5.7-6.793 6.6l.633.482c.237-3 2.6-7.613 6.24-6.568.62.178.884-.787.265-.965zm-4.82 39.283c-2.838 5.587-1.488 14.74 4.375 18.13.222.128.564.068.683-.18 1.55-3.207 2.137-6.4 1.074-9.848-.965-3.123-3.293-5.743-5.347-8.203-.363-.435-.894.055-.836.486.527 3.915 2.1 7.596 2.86 11.453.127.632 1.1.365.965-.265-.77-3.858-2.333-7.538-2.86-11.453l-.836.486c1.746 2.092 3.453 4.188 4.648 6.65 1.632 3.364 1.037 6.943-.53 10.2l.684-.18c-5.37-3.105-6.593-11.685-4.016-16.762.3-.573-.57-1.08-.863-.504zm9.476-60.43c.578 1.232 1.653 2.142 2.32 3.32.317.562 1.18.058.863-.504-.666-1.178-1.74-2.1-2.318-3.32-.274-.584-1.135-.076-.864.504zm5.134 6.82c.608-.57.793-1.415.3-2.12-.424-.594-1.203-.946-1.92-.733-.905.268-1.195 1.4-.854 2.2.45 1.044 1.602 1.344 2.486.65.507-.397-.206-1.1-.707-.707-.77.604-1.366-1.18-.488-1.212.255-.01.525.17.67.37.227.318.076.6-.18.84-.47.442.237 1.15.707.707z"/><path d="M274.218 336.81c2.2 1.88 6.464 1.35 7.287-1.74.36-1.357-.608-2.76-1.618-3.54s-2.192-1.384-2.97-2.418c-.59-.78-.314-1.738-.07-2.552.358-1.457 1.4-1.668 3.13-.634a2.46 2.46 0 0 1-1.541 1.547c-3.708 1.513-7.07-.807-6.386-4.822.754-4.433 5.63-5.968 9.5-5.932 5.722.052 9.46 4.188 11.264 9.18 2.828 7.833 1.757 19.552-5.91 24.334-2.05 1.28-4.642 1.882-6.985 1.174-2.076-.626-3.744-3.248-1.99-5.056 2.05-2.11 5.624-.565 7.313 1.107 2.012 1.993 3.082 4.938 3.78 7.614 1.038 3.977 0 7.248-1.278 11-1.545 4.548-3.274 9.03-4.713 13.612-1.417 4.5-5.615 16.655 1.895 18.244.63.132.897-.832.266-.965-7.292-1.542-1.744-15.432-.376-19.55 1.327-3.995 2.838-7.926 4.177-11.917.933-2.782 1.787-5.47 1.427-8.423-.473-3.87-2.15-8.688-5.363-11.146-2.383-1.825-6.762-2.394-8.524.608-1.44 2.452.996 4.998 3.12 5.828 3.454 1.35 7.574-.732 10.072-3.05 5.793-5.378 6.402-15.09 4.497-22.267-.874-3.293-2.6-6.733-5.377-8.82-4.168-3.132-10.302-3.41-14.668-.533-3.226 2.126-4.516 7.172-1.62 10.05 2.23 2.215 7.88 1.494 8.44-1.962.18-1.1-.9-2.06-1.946-2.104-1.9-.08-2.843 1.495-3.34 3.15-.483 1.606.227 2.925 1.427 3.946.8.68 1.725 1.176 2.514 1.873 2.186 1.93.034 3.988-2.053 4.253-.976.125-1.94-.173-2.684-.804-.488-.415-1.2.29-.707.707z"/><path d="M280.204 383.604c.545-.14 1.066-.5 1.536-.8.52-.32 1.073-.656 1.52-1.078.468-.446-.24-1.152-.707-.707-.385.365-.868.642-1.316.92-.393.247-.842.583-1.298.7-.625.16-.36 1.124.266.964zm-2.874 1.866c2.057.254 2.258-2.487.706-3.3-.895-.475-2.057.048-2.333 1.006-.288 1.003.524 2.1 1.494 2.286.63.127.898-.837.266-.965-.474-.095-.896-.54-.795-1.055.087-.447.658-.54.992-.335.3.184.434.6.433.93-.002.447-.405.486-.763.442-.64-.08-.63.922 0 1z"/></g></svg>
