<svg xmlns="http://www.w3.org/2000/svg" width="100%" height="100%" viewBox="0 0 646 133" fill-rule="evenodd" stroke-linejoin="round" stroke-miterlimit="2" xmlns:v="https://vecta.io/nano"><g transform="matrix(4.16667 0 0 4.16667 -216 -669)" fill-rule="nonzero"><g fill="#ffffff"><path d="M190.857 176.934c-.138 0-.2.102-.262.2-.036.07-.07.17-.012.336.08.23.293.48.545.686a3.21 3.21 0 0 0 .214-.55c.1-.313-.144-.563-.34-.64-.055-.022-.104-.03-.146-.03zm-6.216-2.434l-.135.006c-.667.05-1.158.483-1.383 1.216-.3.945.806 2.155 1.613 2.736.4.3.9.553 1.448.757.55-1.05.814-2.402.28-3.503-.358-.738-1.078-1.212-1.823-1.212zm-3.978 8.887c-2.532 0-4.752-1.697-6.9-3.338-1.462-1.117-2.843-2.173-4.272-2.693-3.854-1.184-6.94-.144-10.513 1.062l-.825.277c-1.226.36-2.488.836-3.824 1.34-4.827 1.82-10.3 3.88-14.955.594a.5.5 0 0 1-.121-.696.5.5 0 0 1 .697-.121c4.224 2.983 9.207 1.104 14.027-.713 1.353-.5 2.632-.992 3.877-1.358l.804-.27c3.737-1.26 6.965-2.348 11.15-1.06 1.597.58 3.104 1.732 4.56 2.845 2.015 1.54 4.1 3.133 6.292 3.133 1.957 0 3.76-.844 4.96-2.318-.55-.222-1.052-.497-1.47-.8-1.193-.86-2.43-2.384-1.984-3.84.343-1.12 1.2-1.838 2.263-1.92 1.2-.094 2.377.618 2.934 1.767.66 1.363.42 2.946-.202 4.225.85.18 1.732.195 2.48-.064a2.69 2.69 0 0 0 .874-.49c-.386-.314-.73-.717-.88-1.152-.133-.386-.1-.773.07-1.118.334-.647 1.006-.902 1.667-.64.637.254 1.18.988.93 1.85a4.25 4.25 0 0 1-.29.74c.673.155 1.506-.097 2.47-.754.497-.338 2.776-1.56 4.024-.894.34.18.745.573.74 1.412-.001.276-.23.52-.503.497a.5.5 0 0 1-.497-.503c.003-.4-.152-.492-.2-.523-.603-.323-2.303.37-3 .838-1.376.935-2.6 1.2-3.64.782-.387.402-.87.706-1.436.9-1.03.355-2.23.307-3.342.02-.05.072-.104.142-.158.2-1.4 1.764-3.507 2.776-5.806 2.776zm20.354-5.78c-.158 0-.32.118-.407.293-.05.1-.1.298.04.5.067.087.132.13.2.13.13 0 .343-.163.452-.405.096-.215.072-.365-.07-.447-.07-.04-.14-.06-.205-.06zm-.177 1.913c-.374 0-.723-.184-.982-.52-.345-.445-.4-1.02-.146-1.54.368-.753 1.3-1.072 2.008-.66.597.343.792 1.035.485 1.722-.223.497-.73.997-1.365.997z"/><path d="M204.338 178.944c-.17 0-.34-.054-.495-.155-.068-.044-.13-.094-.183-.146-.286-.274-.385-.638-.254-.964.218-.542 1.028-.65 1.473-.148.17.195.255.427.246.655a.79.79 0 0 1-.787.758zm-50.592 1.443c.122 4.234 3.826 4.915 7.334 4.917.267 0 .508-.228.5-.5-.116-4.167-3.64-5.313-7.25-5.333-.397-.003-.598.42-.432.752.52 1.03 1.846 1.403 2.777 2 .47.3 1.75 1.432 2.366 1.094.273-.15.336-.57.1-.785-.015-.012-.028-.025-.042-.038-.477-.43-1.186.274-.707.707.013.013.027.026.042.038l.1-.785c.46.054.574.03.345-.07l-.467-.268-1.234-.758c-.746-.47-2.027-.862-2.418-1.64l-.432.753c3.008.017 6.15.748 6.25 4.333l.5-.5c-2.888-.002-6.23-.3-6.334-3.917-.018-.644-1.018-.645-1 0zm8.562-7.565c.255.012.475.28.508.517l.02.14-.057.13c-.257.586-.564 1.105-.86 1.607l-.686 1.248c1.38-.434 2.542-1.67 2.912-3.195.276-1.14.4-3.272 0-3.767-1.934.026-3.687 2.476-4.02 4.07-.136.653-.13 1.866.15 2.582.23-.514.5-.986.784-1.447l.688-1.245a.5.5 0 0 1 .051-.213c.076-.2.295-.428.5-.428zm-1.55 5.015l-.302-.152-.087.046-.103-.096-.688.05.227-.425c-.983-1-.78-3.306-.66-3.9.417-1.994 2.5-4.822 4.92-4.898.33-.001.637.132.856.402.835 1.028.358 3.96.196 4.632-.512 2.1-2.28 3.77-4.283 4.076l-.076.256zm8.905 2.467a.5.5 0 0 1-.386-.819c.092-.182-.006-1.033-.657-2.57a.5.5 0 0 1 .265-.656c.254-.105.547.01.656.265 1.188 2.803.67 3.406.502 3.604a.5.5 0 0 1-.38.175zm3.277-1.324c-.073 0-.14-.005-.203-.017-.268-.05-.44-.307-.393-.576a.5.5 0 0 1 .578-.407c.227.042 1.2-.284 1.76-.73a.5.5 0 0 1 .703.073.5.5 0 0 1-.073.703c-.58.472-1.7.953-2.37.953zm-3.86 3.413a.54.54 0 0 0-.208.053c-.27.12-.245.387-.222.497.037.172.158.358.338.358a.38.38 0 0 0 .101-.015c.22-.06.263-.37.24-.55-.005-.035-.052-.343-.248-.343zm-.092 1.908c-.632 0-1.173-.473-1.316-1.15-.147-.692.172-1.34.794-1.618.884-.393 1.726.124 1.852 1.07.1.664-.214 1.442-.965 1.648-.123.033-.245.05-.365.05zm8.7-8.92c-.233 0-.5.213-.58.447-.02.07-.07.235.217.427a.48.48 0 0 0 .7-.203c.058-.1.1-.28-.032-.474-.12-.176-.237-.197-.315-.197zm-.103 1.958c-.285 0-.566-.087-.814-.252-.567-.378-.8-.957-.62-1.548.2-.66.86-1.158 1.537-1.158.46 0 .867.227 1.145.64a1.44 1.44 0 0 1 .085 1.502c-.265.497-.788.817-1.333.817zm-109.512 2.8a3.1 3.1 0 0 0-.214.55c-.1.313.144.563.34.64.236.094.342-.04.408-.17.036-.07.07-.17.012-.336-.08-.232-.295-.48-.546-.686zm4.944-1.06c-.552 1.052-.814 2.402-.28 3.503.38.783 1.173 1.268 1.96 1.206.667-.05 1.158-.483 1.382-1.216.3-.945-.805-2.154-1.612-2.737a6.21 6.21 0 0 0-1.449-.756zm1.546 5.715c-1.124 0-2.2-.693-2.725-1.776-.662-1.363-.422-2.946.2-4.225-.848-.18-1.73-.194-2.48.065-.335.115-.627.28-.873.5.385.313.73.717.88 1.15a1.44 1.44 0 0 1-.068 1.12c-.333.646-1.002.906-1.666.64-.638-.253-1.18-.987-.932-1.848.077-.264.174-.512.292-.742-.678-.157-1.507.097-2.472.755-.497.338-2.774 1.56-4.024.893-.34-.18-.743-.573-.738-1.4a.5.5 0 0 1 .5-.498h.003a.5.5 0 0 1 .497.503c-.003.4.15.493.2.523.602.32 2.302-.37 3-.838 1.376-.936 2.6-1.2 3.64-.782a3.59 3.59 0 0 1 1.436-.9c1.032-.355 2.23-.306 3.342-.02l.158-.2c1.4-1.764 3.507-2.776 5.807-2.776 2.53 0 4.752 1.697 6.9 3.338 1.462 1.118 2.842 2.173 4.272 2.693 3.854 1.185 6.94.143 10.513-1.062l.825-.277c1.226-.36 2.488-.836 3.824-1.34 4.826-1.82 10.3-3.88 14.956-.594a.5.5 0 0 1 .121.697.5.5 0 0 1-.697.12c-4.223-2.98-9.208-1.102-14.027.713-1.354.5-2.633.992-3.878 1.358l-.804.27c-3.737 1.26-6.966 2.348-11.15 1.06-1.598-.58-3.104-1.73-4.56-2.845-2.016-1.54-4.1-3.133-6.292-3.133-1.958 0-3.76.844-4.96 2.317.55.223 1.053.498 1.472.8 1.193.86 2.43 2.383 1.983 3.84-.343 1.12-1.188 1.837-2.26 1.92a2.46 2.46 0 0 1-.21.009z"/><path d="M58.36 179.765c-.13 0-.342.163-.45.405-.097.215-.074.366.07.447.236.135.5.017.612-.232a.45.45 0 0 0-.039-.489c-.068-.087-.132-.13-.2-.13zm-.176 1.913c-.244 0-.48-.065-.704-.194-.598-.343-.792-1.036-.483-1.723.22-.495.73-.996 1.363-.996.374 0 .722.184.98.52.346.445.4 1.022.147 1.54s-.766.853-1.304.853zm-3.14-.576c-.268 0-.525-.124-.722-.35-.172-.197-.258-.43-.246-.66.027-.6.742-.95 1.28-.598a1.2 1.2 0 0 1 .178.141c.292.28.4.643.258.97a.8.8 0 0 1-.75.496zm50.41-3.204c-.122-4.233-3.826-4.915-7.334-4.917-.267 0-.508.228-.5.5.115 4.167 3.64 5.313 7.25 5.333.398.003.598-.42.432-.752-.52-1.03-1.845-1.403-2.777-2-.47-.3-1.75-1.432-2.365-1.094-.274.15-.338.57-.1.785l.042.038c.476.432 1.186-.273.707-.707l-.042-.038-.1.785c-.46-.054-.575-.03-.346.07l.467.268 1.234.758c.747.47 2.027.862 2.418 1.64l.432-.753c-3.008-.017-6.15-.748-6.25-4.333l-.5.5c2.888.002 6.23.3 6.334 3.917.02.644 1.02.645 1 0zm-7.485 3.922c-1.38.434-2.542 1.67-2.912 3.196-.277 1.14-.4 3.272 0 3.766 1.933-.026 3.687-2.475 4.02-4.07.135-.653.13-1.866-.15-2.582-.23.514-.5.986-.783 1.448l-.688 1.244a.49.49 0 0 1-.052.214c-.077.213-.316.427-.526.426-.24-.01-.46-.278-.493-.516l-.02-.14.057-.13c.258-.586.565-1.105.862-1.607l.686-1.248zm-2.866 7.995c-.32 0-.6-.142-.822-.402-.835-1.03-.36-3.962-.196-4.633.512-2.1 2.28-3.77 4.283-4.075l.076-.257.302.152.087-.046.103.096.688-.05-.227.424c.983 1 .78 3.306.66 3.892-.417 1.994-2.5 4.82-4.92 4.897l-.033.001zm-4.984-7.75a.5.5 0 0 1-.461-.304c-1.188-2.802-.672-3.406-.502-3.604a.5.5 0 0 1 .765.644c-.1.182.007 1.033.658 2.57a.5.5 0 0 1-.46.695zm-5.915-.917a.5.5 0 0 1-.315-.888c.643-.523 1.932-1.054 2.573-.936.27.05.44.307.394.576s-.302.45-.58.407c-.225-.034-1.2.284-1.758.73a.5.5 0 0 1-.315.111zm6.01-6.163c-.03 0-.066.005-.1.015-.22.06-.263.37-.24.55.005.035.052.344.248.344.057 0 .13-.02.208-.054.27-.12.245-.387.222-.497-.037-.172-.158-.358-.338-.358zm-.092 1.9c-.644 0-1.142-.487-1.24-1.2-.1-.663.215-1.442.966-1.648.763-.207 1.5.294 1.68 1.1.146.7-.173 1.342-.794 1.618a1.51 1.51 0 0 1-.614.14zm-8.505 5.05c-.178 0-.36.116-.45.287-.06.1-.1.28.03.474.12.176.237.197.315.197.233 0 .5-.213.58-.447.02-.07.07-.235-.217-.427-.084-.056-.172-.084-.26-.084zm-.104 1.958c-.46 0-.867-.227-1.144-.638-.3-.46-.342-1.02-.085-1.502.402-.756 1.423-1.046 2.147-.566.567.378.8.957.62 1.55a1.67 1.67 0 0 1-1.538 1.157zM136.26 169.7c1.83-2.457 4.968-4.06 7.718-5.7-.485 2.693-.477 5.8-2.208 7.925-.65.803-2.323 1.877-3.98 2.417l-.032.322c1.252-.838 2.652-1.268 4.13-1.46 2.765-2.417 2.422-6.792 3.307-10.107.112-.412-.355-.805-.734-.564-3.032 1.92-6.688 3.674-8.86 6.413a5.86 5.86 0 0 1 .502.545c.054.067.105.14.158.2zm5.683-1.85c.493-.42-.218-1.123-.707-.707-1.47 1.254-2.756 2.693-4.044 4.128.157.346.286.702.385 1.063l4.366-4.484z"/><path d="M151.286 173.66c-3.085-.243-6.404-.836-9.398-.446-1.48.193-2.88.623-4.13 1.46-.108.742-.39 1.45-.892 2.067l.024.007c3.3-3.745 8.568-2.7 13.184-2.205-1.942 1.78-3.66 4.035-6.16 4.94-.903.327-2.62.287-4.202-.107.13.32.232.656.303 1a15.67 15.67 0 0 0 2.216.303c4.04.246 6.617-3.956 9.41-6.167.377-.3.028-.824-.354-.854z"/><path d="M146.07 175.417c-2.98.203-5.862.998-8.805 1.446.478.18.9.45 1.27.788l7.536-1.234c.64-.044.644-1.044 0-1z"/><path d="M139.135 181.72c-.106 3.6-4.383 4.22-7.136 4.06-.27-.015-.505.24-.5.5.046 2.46-1.326 4.434-3.98 4.04-2.685-.4-3.824-3.077-3.705-5.5.018-.35-.45-.66-.75-.43-2.07 1.568-4.622 1.825-5.57-1.018-.8-2.402.812-4.438 3.143-4.85.2-.037.3-.17.344-.322a.39.39 0 0 0-.124-.513c-5.836-4.648 6.043-12.632 8.083-5.23.142.513.793.438.963 0 1.017-2.595 3.1-4.843 5.494-2.25 1.573 1.696 2.197 4.945.12 6.476-.373.275-.287.943.253.932 2.25-.05 3.428 2.075 3.368 4.106zm-.6-4.07a3.87 3.87 0 0 0-1.27-.788c-.12-.046-.248-.08-.376-.115l-.024-.007c.5-.618.784-1.325.892-2.067l.032-.322c.052-.66-.028-1.34-.212-2a7.31 7.31 0 0 0-.385-1.063c-.25-.558-.566-1.088-.932-1.57l-.158-.2a5.86 5.86 0 0 0-.502-.545c-2.34-2.24-4.787-.318-6.126 2.102-3.246-6.815-15.137 1.337-9.98 6.736-2.55.9-3.757 3.472-2.85 6.187 1 3 3.9 3.066 6.193 1.75.185 2.77 1.833 5.17 4.8 5.6 2.968.44 4.706-1.9 4.863-4.543 3.222.072 7.242-.955 7.616-4.752.054-.56.018-1.124-.1-1.67a5.56 5.56 0 0 0-.303-1c-.27-.662-.666-1.258-1.176-1.725zm-5.83-1.096c-.753.453-1.578.756-2.37 1.133a2.55 2.55 0 0 0-.452-.506c.196-.825.524-1.63.877-2.4.268-.582-.594-1.1-.864-.505-.36.778-.7 1.595-.93 2.433-.27-.055-.556-.06-.85.022-.392-.812-.8-1.627-1.312-2.353-.372-.52-1.24-.02-.864.505.516.718.913 1.524 1.3 2.327-.3.24-.55.543-.765.878-.894-.365-1.83-.7-2.562-1.3-.494-.405-1.206.298-.707.707.836.685 1.857 1.062 2.847 1.486a2.73 2.73 0 0 0-.124.722l-2.934.464c-.63.083-.638 1.085 0 1l3.126-.476a1.64 1.64 0 0 0 .49.608l-1.106 2.104c-.318.563.547 1.067.863.505l1.166-2.24c.318.048.653.038.987-.028.274.862.36 1.8.705 2.63.24.588 1.2.33.963-.266-.356-.87-.463-1.807-.737-2.696.232-.124.443-.275.63-.45.924.328 1.772.844 2.73 1.088.625.16.9-.805.265-.964-.848-.217-1.6-.646-2.418-.97.156-.396.214-.847.098-1.354-.004-.022-.015-.043-.022-.065l2.474-1.185c.552-.333.05-1.197-.504-.863z"/></g></g></svg>
