<svg xmlns="http://www.w3.org/2000/svg" width="100%" height="100%" viewBox="0 0 279 77" fill-rule="nonzero" stroke-linejoin="round" stroke-miterlimit="2" xmlns:v="https://vecta.io/nano"><g fill="#ffffff"><path d="M60.16 33.068a13.29 13.29 0 0 0-.892 2.292c-.38 1.304.6 2.346 1.413 2.67.988.38 1.43-.17 1.704-.704.146-.288.288-.708.046-1.4-.333-.963-1.22-1.996-2.27-2.858zm20.6-4.413c-2.296 4.383-3.392 10.008-1.167 14.6 1.58 3.254 4.875 5.242 8.158 5.025 2.783-.217 4.83-2.017 5.763-5.07 1.204-3.938-3.358-8.98-6.72-11.404-1.667-1.204-3.754-2.3-6.033-3.15zm6.438 23.813c-4.683 0-9.167-2.888-11.354-7.4-2.75-5.675-1.754-12.27.842-17.6-3.53-.75-7.208-.817-10.338.267-1.396.48-2.613 1.167-3.638 2.042 1.604 1.308 3.038 2.983 3.663 4.796.554 1.608.458 3.22-.283 4.658-1.388 2.7-4.18 3.77-6.95 2.67-2.654-1.058-4.913-4.117-3.87-7.704a17.31 17.31 0 0 1 1.213-3.088c-2.808-.642-6.27.4-10.296 3.146-2.07 1.408-11.558 6.496-16.77 3.72-1.417-.754-3.1-2.388-3.08-5.88a2.08 2.08 0 0 1 2.083-2.071h.013c1.15.008 2.075.946 2.07 2.096-.013 1.708.633 2.05.87 2.175 2.513 1.346 9.6-1.538 12.467-3.488 5.733-3.9 10.83-4.992 15.17-3.267 1.608-1.67 3.617-2.933 5.98-3.75 4.3-1.48 9.292-1.28 13.925-.08a37.14 37.14 0 0 1 .658-.879c5.792-7.342 14.613-11.558 24.196-11.558 10.546 0 19.8 7.07 28.746 13.908 6.088 4.654 11.842 9.05 17.796 11.217 16.063 4.938 28.92.6 43.813-4.425l3.43-1.154c5.108-1.5 10.37-3.483 15.938-5.58 20.117-7.583 42.925-16.175 62.313-2.475a2.08 2.08 0 0 1 .5 2.9c-.658.954-1.975 1.17-2.9.5-17.6-12.42-38.367-4.592-58.446 2.97-5.638 2.13-10.967 4.133-16.158 5.663l-3.342 1.125c-15.575 5.25-29.02 9.792-46.467 4.425-6.654-2.42-12.938-7.217-19.008-11.854-8.392-6.417-17.075-13.054-26.213-13.054-8.163 0-15.667 3.513-20.667 9.65 2.292.93 4.383 2.07 6.13 3.333 4.97 3.592 10.12 9.933 8.27 16-1.43 4.667-4.954 7.663-9.43 8.008a12.28 12.28 0 0 1-.875.033zm-67.5-20.918c-.542 0-1.425.68-1.88 1.692-.4.892-.304 1.52.292 1.863a1.69 1.69 0 0 0 .85.246h.004c.658 0 1.342-.488 1.696-1.22.204-.413.458-1.238-.158-2.03-.288-.367-.554-.55-.804-.55zm-.738 7.967c-1.013 0-1.996-.267-2.925-.8-2.492-1.433-3.3-4.317-2.02-7.183.93-2.067 3.046-4.15 5.683-4.15 1.558 0 3.013.77 4.096 2.163 1.438 1.854 1.667 4.254.613 6.417s-3.196 3.554-5.446 3.554z"/><path d="M5.88 37.118c-1.12 0-2.188-.517-3.013-1.45-.9-1.03-1.054-2.05-1.025-2.725.108-2.483 3.096-3.98 5.342-2.508a6.24 6.24 0 0 1 .713.558c1.242 1.196 1.65 2.708 1.1 4.067-.5 1.25-1.725 2.058-3.117 2.058zm210.038-13.342C215.4 6.134 199.985 3.293 185.364 3.284c-1.113 0-2.117.954-2.083 2.083.483 17.367 15.17 22.142 30.208 22.225 1.654.008 2.496-1.758 1.8-3.133-2.163-4.296-7.692-5.85-11.575-8.333-1.975-1.267-7.267-5.946-9.854-4.563-1.146.617-1.404 2.392-.425 3.275a3.72 3.72 0 0 1 .175.158c1.992 1.792 4.946-1.146 2.946-2.946-.054-.054-.117-.108-.175-.163l-.417 3.275c-1.917-.225-2.396-.13-1.442.288.663.346 1.304.742 1.946 1.12 1.733 1.02 3.442 2.083 5.142 3.15 3.108 1.963 8.45 3.6 10.08 6.838l1.8-3.133c-12.538-.07-25.625-3.117-26.042-18.058l-2.083 2.083c12.038.004 25.95 1.213 26.388 16.325.075 2.683 4.242 2.692 4.167 0zM184.73 40.118c-5.75 1.804-10.592 6.958-12.133 13.308-1.154 4.754-1.67 13.638 0 15.7 8.058-.113 15.363-10.317 16.746-16.958.57-2.725.554-7.783-.62-10.763-.963 2.138-2.125 4.104-3.267 6.025-.983 1.663-1.996 3.375-2.87 5.192a2.13 2.13 0 0 1-.213.892c-.32.892-1.288 1.746-2.183 1.775-1-.042-1.917-1.154-2.063-2.142l-.088-.592.242-.546c1.075-2.45 2.354-4.613 3.592-6.704 1.033-1.746 2.03-3.43 2.858-5.188zm-11.942 33.308c-1.333 0-2.542-.592-3.425-1.675-3.48-4.292-1.492-16.513-.817-19.308 2.133-8.783 9.504-15.704 17.85-16.975l.313-1.067 1.258.63.363-.192.43.4 2.87-.204-.954 1.77c4.104 4.213 3.254 13.775 2.746 16.217-1.733 8.304-10.367 20.088-20.492 20.404h-.142zM152.03 41.134a2.08 2.08 0 0 1-1.917-1.27c-4.95-11.675-2.808-14.188-2.104-15.013.754-.88 2.067-.983 2.938-.238s.98 2.033.258 2.908c-.38.758.03 4.313 2.742 10.717a2.08 2.08 0 0 1-1.917 2.896zM127.376 37.3a2.07 2.07 0 0 1-1.621-.771 2.09 2.09 0 0 1 .308-2.933c2.688-2.175 8.063-4.404 10.733-3.892 1.117.217 1.83 1.28 1.625 2.404-.192 1.125-1.288 1.9-2.408 1.688-.954-.13-5.033 1.18-7.33 3.042a2.05 2.05 0 0 1-1.308.463zm25.042-25.68c-.133 0-.275.025-.425.063-.913.25-1.096 1.542-.992 2.296.02.146.217 1.425 1.03 1.425.242 0 .538-.075.867-.225 1.125-.496 1.025-1.608.93-2.063-.158-.717-.663-1.496-1.408-1.496zm-.388 7.95c-2.68 0-4.754-2.02-5.158-5.038-.37-2.763.888-6.013 4.025-6.87 3.175-.867 6.292 1.225 7.004 4.596.608 2.88-.725 5.583-3.317 6.733-.867.383-1.725.58-2.554.58zm-35.437 21.054c-.742 0-1.492.483-1.875 1.2-.242.45-.413 1.158.133 1.97.492.733.983.82 1.313.82.97 0 2.12-.888 2.417-1.858.088-.296.296-.98-.904-1.78-.35-.233-.713-.354-1.083-.354zm-.43 8.158c-1.92 0-3.617-.95-4.77-2.663-1.288-1.913-1.42-4.246-.354-6.254 1.675-3.158 5.938-4.358 8.946-2.354 2.367 1.575 3.33 3.983 2.583 6.45-.833 2.746-3.583 4.82-6.404 4.82z"/></g></svg>
