<svg xmlns="http://www.w3.org/2000/svg" width="100%" height="100%" viewBox="0 0 441 190" fill-rule="nonzero" stroke-linejoin="round" stroke-miterlimit="2" xmlns:v="https://vecta.io/nano"><g fill="#ffffff"><path d="M337.284 56.5c-25.38-4.483-54.463-24.746-52.754-53.196l-2.083 2.083c26.263 2.833 50.33 26.613 52.2 53.12l3.133-1.8c-11.767-8.567-22.958-20.82-30.146-33.483-1.325-2.333-4.925-.238-3.596 2.1C311.634 38.7 323.3 51.293 335.675 60.31c1.254.908 3.242-.308 3.138-1.8-2.046-28.963-27.73-54.2-56.367-57.288-1.175-.125-2.017 1.046-2.083 2.083-1.817 30.254 28.642 52.413 55.813 57.213 2.625.467 3.75-3.55 1.108-4.017z"/><path d="M331.5 57.176c-30.863-2.025-52.233 19.492-61.404 47.33-.396 1.196.683 2.775 2.008 2.638 13.967-1.475 27.767-4.196 39.62-12.117 12.08-8.075 18.375-21.55 21.783-35.217.3-1.2-.617-2.783-2.008-2.633-16.383 1.763-24.508 15.83-35.58 26.342-1.954 1.85 1 4.792 2.946 2.946 9.867-9.37 17.942-23.542 32.633-25.12l-2.008-2.638c-3.458 13.85-9.633 25.883-21.73 33.963-10.358 6.92-23.538 9.03-35.658 10.308l2.008 2.638c8.613-26.13 28.375-46.17 57.388-44.27 2.683.175 2.667-3.992 0-4.167zm-26.637-.133C272.92 63.863 241.025 39.2 230.188 10.3l-2.563 2.563c29.063 10.658 59.246 18.854 75.992 47.242l3.275-2.525c-13.546-11.254-30.967-15.508-45.188-25.558-2.196-1.55-4.28 2.058-2.104 3.596 13.917 9.833 31.1 13.904 44.346 24.908 1.746 1.454 4.538-.37 3.27-2.52-17.35-29.413-48.313-38.096-78.483-49.163-1.433-.525-3.104 1.125-2.563 2.563 11.67 31.13 45.492 56.98 79.8 49.658 2.63-.558 1.513-4.575-1.108-4.02z"/><path d="M50.617 155.034c-12.175 1.4-9.892 14.054-1.588 19.533 4.233 2.783 10.483 1.704 14.1-1.592 6.596-6.017 7.288-14.28 6.73-22.804-.525-8.1-2.833-16.3-6.333-23.604-3.35-6.996-8.625-12.146-9.588-20.22-.692-5.842 9.57-23.05 14.37-11.325 2.446 5.967-2.23 13.625-7.12 16.658-4.204 2.608-9.717 1.796-14.154.467-12.963-3.896-16.517-16.95-11.48-28.396 8.096-18.413 32.55-18.125 49.113-14.996 16.658 3.15 35.604 10.663 46.258 24.454 10.37 13.43-4.23 22.596-16.538 15.783-7.242-4.013-5.108-12.492-1.958-18.442 6.783-12.808 19.796-18.775 33.77-18.925 11.796-.12 23.588 4.392 33.938 9.633 10.48 5.304 19.23 13.275 31.396 14.57 28.883 3.067 50.03-16.196 74.246-28.1 23.68-11.646 51.817-5.017 76.525-1.258 25.988 3.954 51.475 4.575 76.288-5.27 2.467-.98 1.392-5.008-1.108-4.017-27.25 10.813-54.604 8.354-82.883 3.9-21.746-3.42-43.792-6.68-65.12.633-11.18 3.833-20.854 11.42-31.03 17.246-15.1 8.646-31.988 15.383-49.617 12.183-12.154-2.204-22.57-11.925-33.783-16.9-9.13-4.046-18.87-6.417-28.85-6.788-17.68-.654-33.646 10.058-39.896 26.558-3.542 9.354 1.646 17.704 10.688 20.583 7.4 2.354 17.992.408 21.37-7.325 4.483-10.25-7.342-21.258-14.517-26.63-20.146-15.08-53.4-23.863-77.217-13.38-24.083 10.6-23.12 46.242 4.742 50.088 10.692 1.48 20.333-6.12 21.292-16.967.917-10.383-7.492-16.77-16.492-10.083-13.942 10.363-2.188 27.667 3.758 38.363 4.696 8.454 6.275 19.654 5.863 29.133-.283 6.508-3.833 13.692-11.108 14.188-5.783.396-13.904-11.658-4.067-12.788 2.638-.304 2.667-4.47 0-4.167z"/><path d="M143.67 64.76c-3.88-.37-6.692-5.463-8.25-8.48-2.908-5.642-2.746-12.158-.85-18.05l-3.48.92c7.708 6.58 16.6 16.017 10.783 26.642l3.88 1.05c-.496-5.546-3.846-10.808-6.354-15.633-1.242-2.388-4.833-.28-3.596 2.1 2.117 4.075 5.367 8.858 5.783 13.533.175 1.938 2.813 3.008 3.883 1.05 6.813-12.43-2.058-23.692-11.433-31.692-1.208-1.025-2.98-.646-3.483.92-2.492 7.73-1.775 15.358 1.938 22.554 2.18 4.225 6.188 8.775 11.18 9.25 2.675.258 2.65-3.913 0-4.167zM29.784 91.147c-7.513.113-14.725 1.567-20.592 6.513-5.183 4.375-7.13 11.33-7.88 17.792-.12 1.038 1.046 2.208 2.083 2.083 13.758-1.663 29.408-7.967 28.47-24.304-.083-1.504-1.725-2.692-3.133-1.8-5.283 3.35-11.058 5.754-15.7 10.046-1.98 1.83.975 4.767 2.946 2.95 4.363-4.033 9.892-6.246 14.858-9.396l-3.138-1.8c.792 13.82-12.78 18.742-24.304 20.138l2.083 2.083c1.596-13.758 10.95-19.933 24.304-20.138 2.683-.042 2.688-4.208 0-4.167zm192.212.933c-16.4 4.313-18.788 28.758-10.417 40.87.7 1.017 2.35 1.52 3.27.425 9.78-11.654 18.03-25.683 9.496-40.338-.867-1.492-3.425-1.308-3.808.496-1.83 8.67-4.07 17.213-7.508 25.396-1.042 2.475 2.992 3.546 4.017 1.108 3.438-8.183 5.68-16.725 7.508-25.396l-3.804.496c7.533 12.938-.413 25.242-8.846 35.292l3.27.42c-6.792-9.833-5.908-31.117 7.925-34.754 2.6-.683 1.496-4.7-1.104-4.017zm-35.78-21.412c2.792-5.696-7.1-9.113-7.567-3.05-.296 3.904 5.475 7.313 7.567 3.05zm-15.283-10.996c-1.18.63-2.004 1.825-1.654 3.363.98 4.296 7.78 2.563 6.446-1.825-.663-2.154-3.092-2.442-4.792-1.538zm-69.214 53.496c2.267.363 5.263 3.05 3.525 5.375-.954 1.28-3.742 2.108-5.117 1.246-2.604-1.63-2.125-7.213 1.592-6.62zM39.488 65.784c-1.1 1.408-3.68 1.52-4.558-.238-2.63-5.288 8.108-4.263 4.558.238zm-10.75 7.98c-2.796-.72-1.92-4.658.75-4.733 3.404-.08 2.858 5.667-.75 4.733zm-1.504-15.125c-1.892.213-3.333 2.638-2.113 4.217 1.192 1.546 4.325 2.308 5.404.196.975-1.9-1.296-4.633-3.292-4.413zm30.416 123.13c-1.492-1.346-4.308-1.992-6.013-.508-2.058 1.8-1.338 5.97 1.713 6.27 2.442.242 6.988-3.338 4.3-5.763z"/></g></svg>
